<svg xmlns="http://www.w3.org/2000/svg" width="32" height="31" fill="none"><path fill="#fff" d="M29.45 7.817c-1.4-2.4-3.3-4.3-5.7-5.7-2.4-1.4-5-2.1-7.9-2.1-2.9 0-5.5.7-7.9 2.1-2.4 1.4-4.3 3.3-5.7 5.7-1.4 2.4-2.1 5-2.1 7.9 0 3.4 1 6.5 3 9.2 2 2.7 4.6 4.6 7.8 5.7.4.1.6 0 .8-.1.2-.2.3-.4.3-.6v-2.9l-.5.1c-.3.1-.7.1-1.1.1-.5 0-.9-.1-1.4-.1-.5-.1-.9-.3-1.4-.6-.4-.3-.7-.7-.9-1.3l-.2-.5c-.1-.3-.4-.7-.6-1-.3-.4-.6-.6-.9-.8l-.1-.1c-.1-.1-.2-.2-.3-.2-.1-.1-.1-.2-.2-.3 0-.1 0-.2.1-.2.1-.1.3-.1.6-.1l.4.1c.3.1.6.2 1 .5s.7.6 1 1.1c.3.6.7 1 1.1 1.3.4.3.9.4 1.3.4s.8 0 1.2-.1l.9-.3c.1-.9.5-1.6 1-2.1-.8-.1-1.5-.2-2.1-.4-.6-.2-1.3-.4-1.9-.8-.7-.4-1.2-.8-1.6-1.4-.4-.5-.8-1.3-1.1-2.2-.3-.9-.4-1.9-.4-3.1 0-1.7.5-3.1 1.6-4.2-.5-1.2-.5-2.6.1-4.2.4-.1 1 0 1.8.3s1.3.6 1.7.8c.4.2.7.4.9.6 1.3-.4 2.6-.5 3.9-.5 1.3 0 2.7.2 3.9.5l.8-.5c.5-.3 1.2-.6 1.9-.9.7-.3 1.3-.3 1.7-.2.6 1.5.7 2.9.2 4.2 1.1 1.2 1.6 2.6 1.6 4.2 0 1.2-.1 2.2-.4 3.1-.3.9-.6 1.6-1.1 2.2-.4.5-1 1-1.7 1.4-.7.4-1.3.6-1.9.8-.6.2-1.3.3-2.1.4.7.6 1.1 1.6 1.1 2.9v4.3c0 .2.1.5.3.6.2.2.4.2.8.1 3.2-1.1 5.8-2.9 7.8-5.7 2-2.7 3-5.8 3-9.2-.3-3.2-1-5.8-2.4-8.2Z"/></svg>