<svg xmlns="http://www.w3.org/2000/svg" width="35" height="28" fill="none"><path fill="#fff" d="M29.628 2.834A28.679 28.679 0 0 0 22.412.588c-.31.557-.674 1.305-.924 1.901-2.69-.4-5.356-.4-7.997 0a20.24 20.24 0 0 0-.935-1.901A28.584 28.584 0 0 0 5.333 2.84C.767 9.677-.47 16.343.15 22.916c3.028 2.24 5.964 3.602 8.85 4.493a21.774 21.774 0 0 0 1.895-3.093 18.712 18.712 0 0 1-2.985-1.44c.25-.183.495-.375.732-.573 5.755 2.667 12.008 2.667 17.694 0 .24.198.484.39.732.574a18.653 18.653 0 0 1-2.99 1.442 21.67 21.67 0 0 0 1.895 3.092c2.889-.89 5.827-2.252 8.855-4.495.727-7.62-1.24-14.225-5.199-20.082Zm-17.95 16.04c-1.728 0-3.144-1.598-3.144-3.544s1.386-3.546 3.144-3.546c1.758 0 3.175 1.598 3.144 3.546.003 1.946-1.386 3.544-3.144 3.544Zm11.62 0c-1.727 0-3.144-1.598-3.144-3.544s1.386-3.546 3.144-3.546c1.758 0 3.175 1.598 3.145 3.546 0 1.946-1.387 3.544-3.145 3.544Z"/></svg>