<svg xmlns="http://www.w3.org/2000/svg" width="28" height="28" fill="none"><g clip-path="url(#a)"><path fill="#4285F4" d="M27.347 14.261c0-1.147-.093-1.984-.294-2.852h-13.1v5.178h7.69c-.156 1.287-.993 3.224-2.853 4.526l-.026.174 4.142 3.208.287.029c2.635-2.434 4.154-6.015 4.154-10.263Z"/><path fill="#34A853" d="M13.953 27.904c3.767 0 6.93-1.24 9.24-3.38l-4.403-3.41c-1.178.821-2.76 1.395-4.837 1.395-3.69 0-6.82-2.434-7.937-5.798l-.163.014-4.307 3.333-.056.156c2.294 4.558 7.007 7.69 12.463 7.69Z"/><path fill="#FBBC05" d="M6.016 16.711a8.589 8.589 0 0 1-.465-2.76c0-.96.17-1.89.45-2.758l-.008-.185-4.36-3.387-.143.068A13.965 13.965 0 0 0 0 13.952c0 2.248.543 4.371 1.489 6.263l4.526-3.504Z"/><path fill="#EB4335" d="M13.953 5.395c2.62 0 4.387 1.131 5.395 2.077l3.938-3.845C20.866 1.38 17.72 0 13.952 0 8.497 0 3.783 3.131 1.49 7.689L6 11.193c1.132-3.364 4.264-5.798 7.953-5.798Z"/></g><defs><clipPath id="a"><path fill="#fff" d="M0 0h27.362v28H0z"/></clipPath></defs></svg>